<svg width="447" height="265" viewBox="0 0 447 265" fill="none" xmlns="http://www.w3.org/2000/svg">
<g clip-path="url(#clip0)">
<path d="M118.152 143.469L117.674 143.361C130.902 84.8613 189.048 48.1605 247.548 61.3877C267.51 65.9013 285.791 75.9641 300.283 90.4163C314.774 104.868 324.887 123.121 329.456 143.072L328.979 143.18C317.718 93.7356 274.383 59.2019 223.598 59.2019C173.477 59.204 129.131 94.6424 118.152 143.469Z" fill="#E6E6E6"/>
<path d="M447 254.128H0V0H447V254.128ZM0.827778 253.3H446.172V0.827778H0.827778V253.3Z" fill="#3F3D56"/>
<path d="M30.6278 29.8001C32.685 29.8001 34.3528 28.1324 34.3528 26.0751C34.3528 24.0178 32.685 22.3501 30.6278 22.3501C28.5705 22.3501 26.9028 24.0178 26.9028 26.0751C26.9028 28.1324 28.5705 29.8001 30.6278 29.8001Z" fill="#6C63FF"/>
<path d="M41.8028 29.8001C43.86 29.8001 45.5278 28.1324 45.5278 26.0751C45.5278 24.0178 43.86 22.3501 41.8028 22.3501C39.7455 22.3501 38.0778 24.0178 38.0778 26.0751C38.0778 28.1324 39.7455 29.8001 41.8028 29.8001Z" fill="#F2F2F2"/>
<path d="M52.9778 29.8001C55.0351 29.8001 56.7028 28.1324 56.7028 26.0751C56.7028 24.0178 55.0351 22.3501 52.9778 22.3501C50.9205 22.3501 49.2528 24.0178 49.2528 26.0751C49.2528 28.1324 50.9205 29.8001 52.9778 29.8001Z" fill="#F2F2F2"/>
<path d="M429.203 212V239.642H399.767C401.336 232.614 404.982 226.22 410.231 221.291C415.48 216.361 422.09 213.124 429.203 212Z" fill="#E6E6E6"/>
<path d="M377.392 75.783L377.127 75.4644L278.046 157.634L277.728 157.899L346.379 240.676H347.456L278.895 158.006L377.02 76.6315L429.203 139.555V138.255L377.392 75.783Z" fill="#E6E6E6"/>
<path d="M291.599 117.754C305.701 117.754 317.132 106.322 317.132 92.2206C317.132 78.1188 305.701 66.687 291.599 66.687C277.497 66.687 266.065 78.1188 266.065 92.2206C266.065 106.322 277.497 117.754 291.599 117.754Z" fill="#A0616A"/>
<path d="M334.044 146.094L319.835 187.29V187.294L312.987 207.156C312.987 207.156 312.288 238.738 311.586 238.738C311.44 238.738 311.233 239.193 311 239.91H242.958L248.419 181.887L248.084 179.184L243.812 144.529C243.328 140.597 244.202 136.618 246.289 133.252C248.377 129.885 251.552 127.333 255.289 126.02L262.427 123.51C271.79 120.219 281.856 119.451 291.61 121.285H291.61C300.278 122.915 308.444 126.551 315.454 131.903L334.044 146.094Z" fill="#6C63FF"/>
<path d="M313.741 71.6492C313.741 71.6492 305.635 54.0845 290.095 58.1378C274.555 62.191 265.774 68.2714 265.099 74.3514C264.423 80.4315 265.436 89.5519 265.436 89.5519C265.436 89.5519 267.126 77.0525 277.936 79.756C288.746 82.4595 305.634 80.4315 305.634 80.4315L308.336 104.752C308.336 104.752 311.376 100.361 314.754 103.063C318.132 105.765 324.551 77.0537 313.741 71.6492Z" fill="#2F2E41"/>
<path d="M347.379 209.963C347.379 209.963 347.379 225.999 341.485 239.91H321.233L321.411 239.44L327.025 214.874L324.921 206.453L319.835 187.293V187.289C317.192 177.331 317.348 166.836 320.285 156.959L320.515 156.185C321.382 153.27 323.167 150.713 325.605 148.894C328.043 147.076 331.003 146.093 334.044 146.093C334.044 146.093 343.167 153.815 342.465 168.552L347.379 209.963Z" fill="#6C63FF"/>
<path d="M405.771 50.5105C403.039 50.5105 400.368 49.7003 398.097 48.1824C395.825 46.6645 394.054 44.5071 393.009 41.9829C391.963 39.4587 391.69 36.6812 392.223 34.0016C392.756 31.3219 394.071 28.8605 396.003 26.9286C397.935 24.9967 400.397 23.681 403.076 23.148C405.756 22.615 408.534 22.8886 411.058 23.9341C413.582 24.9796 415.739 26.7502 417.257 29.0219C418.775 31.2936 419.585 33.9644 419.585 36.6965C419.585 40.3602 418.13 43.8738 415.539 46.4645C412.949 49.0551 409.435 50.5105 405.771 50.5105ZM405.771 23.5249C403.166 23.5249 400.62 24.2974 398.454 25.7447C396.288 27.1921 394.599 29.2492 393.602 31.656C392.605 34.0628 392.345 36.7111 392.853 39.2662C393.361 41.8212 394.615 44.1682 396.458 46.0103C398.3 47.8523 400.647 49.1068 403.202 49.615C405.757 50.1233 408.405 49.8624 410.812 48.8655C413.219 47.8686 415.276 46.1803 416.723 44.0143C418.17 41.8482 418.943 39.3016 418.943 36.6965C418.943 34.9668 418.602 33.254 417.94 31.656C417.278 30.0579 416.308 28.6059 415.085 27.3828C413.862 26.1597 412.41 25.1895 410.812 24.5276C409.214 23.8656 407.501 23.5249 405.771 23.5249Z" fill="#CCCCCC"/>
<path d="M429.203 240.676H17.7972V13.4514H429.203V240.676ZM18.5592 239.936H428.441V14.1915H18.5592V239.936Z" fill="#CCCCCC"/>
<path d="M411.591 31.4431L411.289 31.1414L405.679 36.7516L400.069 31.1414L399.767 31.4431L405.377 37.0529L400.514 41.9161L400.816 42.2179L405.679 37.3547L410.542 42.2179L410.844 41.9161L405.981 37.0529L411.591 31.4431Z" fill="#3F3D56"/>
<path d="M172.106 143.804H31.8496C30.5382 143.806 29.281 144.327 28.3537 145.255C27.4264 146.182 26.9046 147.439 26.9028 148.751V202.874C26.9041 204.186 27.4256 205.443 28.353 206.371C29.2803 207.299 30.5378 207.821 31.8496 207.823H172.106C173.417 207.821 174.674 207.299 175.602 206.372C176.529 205.445 177.051 204.187 177.053 202.876V148.751C177.051 147.439 176.529 146.182 175.602 145.255C174.674 144.327 173.417 143.806 172.106 143.804ZM176.471 202.874C176.469 204.032 176.009 205.141 175.191 205.959C174.372 206.777 173.263 207.238 172.106 207.239H31.8496C30.6924 207.238 29.583 206.777 28.7647 205.959C27.9465 205.141 27.4861 204.032 27.4847 202.874V148.751C27.4861 147.593 27.9465 146.484 28.7647 145.666C29.583 144.847 30.6924 144.387 31.8496 144.386H172.106C173.263 144.387 174.372 144.847 175.191 145.666C176.009 146.484 176.469 147.593 176.471 148.751V202.874Z" fill="#3F3D56"/>
<path d="M163.901 159.531H90.4268C88.2928 159.531 86.5404 160.938 86.4573 162.712C86.452 162.756 86.4499 162.799 86.451 162.842C86.4539 164.67 88.2308 166.151 90.4268 166.153H163.901C166.097 166.153 167.877 164.671 167.877 162.842C167.877 161.014 166.097 159.531 163.901 159.531Z" fill="#6C63FF"/>
<path d="M163.901 172.776H90.4268C88.2928 172.776 86.5404 174.184 86.4573 175.958C86.452 176.001 86.4499 176.044 86.451 176.087C86.4539 177.915 88.2308 179.396 90.4268 179.399H163.901C166.097 179.399 167.877 177.916 167.877 176.087C167.877 174.259 166.097 172.776 163.901 172.776Z" fill="#6C63FF"/>
<path d="M163.901 186.021H90.4268C88.2928 186.021 86.5404 187.428 86.4573 189.202C86.452 189.245 86.4499 189.288 86.451 189.332C86.4539 191.159 88.2308 192.64 90.4268 192.643H163.901C166.097 192.643 167.877 191.16 167.877 189.332C167.877 187.503 166.097 186.021 163.901 186.021Z" fill="#6C63FF"/>
<path d="M55.87 193.47C52.403 193.47 49.0139 192.442 46.1312 190.516C43.2485 188.59 41.0017 185.852 39.6749 182.649C38.3482 179.446 38.001 175.921 38.6774 172.521C39.3538 169.12 41.0233 165.997 43.4748 163.545C45.9264 161.094 49.0498 159.424 52.4502 158.748C55.8506 158.072 59.3752 158.419 62.5782 159.745C65.7813 161.072 68.5191 163.319 70.4452 166.202C72.3714 169.084 73.3995 172.474 73.3995 175.941C73.3995 180.59 71.5526 185.048 68.2652 188.336C64.9778 191.623 60.5191 193.47 55.87 193.47ZM55.87 159.016C52.5226 159.016 49.2504 160.008 46.4671 161.868C43.6839 163.728 41.5146 166.371 40.2336 169.464C38.9526 172.556 38.6174 175.959 39.2705 179.242C39.9235 182.526 41.5354 185.541 43.9024 187.908C46.2694 190.275 49.2851 191.887 52.5682 192.54C55.8512 193.193 59.2542 192.858 62.3468 191.577C65.4394 190.296 68.0827 188.127 69.9424 185.343C71.8021 182.56 72.7948 179.288 72.7948 175.941C72.7948 171.452 71.0116 167.147 67.8376 163.973C64.6636 160.799 60.3587 159.016 55.87 159.016Z" fill="#3F3D56"/>
<path d="M122.511 233.02H107.611V218.12H122.511V233.02ZM108.439 232.192H121.683V218.947H108.439V232.192Z" fill="#FF6584"/>
<path d="M89.8905 228.27L84.5674 223.391L85.127 222.781L89.7373 227.008L100.231 211.268L100.919 211.727L89.8905 228.27Z" fill="#3F3D56"/>
<path d="M95.1944 221.845V232.192H81.95V218.947H92.2972V218.12H81.1222V233.02H96.0222V221.845H95.1944Z" fill="#E5E5E5"/>
<path d="M49.4597 191.216C54.8315 191.216 59.1861 186.862 59.1861 181.49C59.1861 176.118 54.8315 171.764 49.4597 171.764C44.088 171.764 39.7333 176.118 39.7333 181.49C39.7333 186.862 44.088 191.216 49.4597 191.216Z" fill="#6C63FF"/>
<path d="M176.69 256.234C176.748 255.103 177.055 253.998 177.586 252.998C178.118 251.997 178.863 251.126 179.768 250.445C180.673 249.763 181.717 249.289 182.825 249.054C183.934 248.82 185.08 248.831 186.184 249.088L200.868 225.79L206.774 238.825L191.924 258.951C191.37 260.776 190.166 262.335 188.54 263.332C186.913 264.328 184.978 264.694 183.1 264.359C181.222 264.024 179.533 263.012 178.351 261.515C177.17 260.017 176.579 258.139 176.69 256.234Z" fill="#A0616A"/>
<path d="M253.373 128.665L252.563 128.808C243.458 130.416 235.739 136.632 232.551 145.311C232.455 145.571 232.364 145.833 232.276 146.096L226.661 171.361L188.059 245.056L199.992 252.073C199.992 252.073 232.979 213.472 237.19 200.136L254.146 167.528C254.993 165.9 255.401 164.08 255.33 162.247L254.059 129.218C254.056 129.135 254.035 129.053 253.997 128.978C253.96 128.904 253.907 128.838 253.842 128.786C253.777 128.733 253.701 128.695 253.62 128.674C253.54 128.654 253.455 128.65 253.373 128.665Z" fill="#6C63FF"/>
</g>
<defs>
<clipPath id="clip0">
<rect width="447" height="264.481" fill="white"/>
</clipPath>
</defs>
</svg>
